<svg width="15" height="15" viewBox="0 0 15 15" fill="none" xmlns="http://www.w3.org/2000/svg">
<g clip-path="url(#clip0_11_141)">
<path d="M1.5812 9.231C1.44829 10.1022 2.0425 10.707 2.77003 11.0084C5.55926 12.1639 9.44075 12.1639 12.2299 11.0084C12.9575 10.707 13.5517 10.1022 13.4188 9.231C13.3371 8.69556 12.9333 8.24969 12.634 7.81431C12.2421 7.23706 12.2031 6.60737 12.2031 5.9375C12.2031 3.34866 10.0974 1.25 7.5 1.25C4.90258 1.25 2.79696 3.34866 2.79696 5.9375C2.79689 6.60737 2.75795 7.23706 2.36601 7.81431C2.06678 8.24969 1.66288 8.69556 1.5812 9.231Z" stroke="#505050" stroke-width="1.5" stroke-linecap="round" stroke-linejoin="round"/>
<path d="M5 11.875C5.28656 12.9533 6.29719 13.75 7.5 13.75C8.70281 13.75 9.71344 12.9533 10 11.875" stroke="#505050" stroke-width="1.5" stroke-linecap="round" stroke-linejoin="round"/>
</g>
<defs>
<clipPath id="clip0_11_141">
<rect width="15" height="15" fill="white"/>
</clipPath>
</defs>
</svg>
