<svg width="20" height="17" viewBox="0 0 20 17" fill="none" xmlns="http://www.w3.org/2000/svg">
<g id="Group">
<path id="Vector" fill-rule="evenodd" clip-rule="evenodd" d="M0.000494188 2.00098C0.0794957 3.41827 0.48293 4.29571 1.07386 4.83661C0.925892 4.94575 0.810814 5.0935 0.741233 5.26369C0.671652 5.43388 0.650253 5.61994 0.679381 5.80148C0.981167 7.71595 1.73484 11.765 3.27959 16.3292C3.34018 16.5259 3.46223 16.6981 3.62783 16.8203C3.79342 16.9426 3.99385 17.0086 4.19969 17.0086C4.40553 17.0086 4.60596 16.9426 4.77155 16.8203C4.93715 16.6981 5.0592 16.5259 5.11979 16.3292C6.66506 11.765 7.41874 7.71595 7.72 5.80148C7.74907 5.61994 7.72764 5.4339 7.65806 5.26373C7.58849 5.09355 7.47344 4.94579 7.32552 4.83661C7.91645 4.29571 8.31988 3.41827 8.39889 2.00098C8.40208 1.93218 8.39109 1.86345 8.36661 1.79907C8.34212 1.7347 8.30467 1.67604 8.25656 1.62675C8.20845 1.57746 8.15072 1.53858 8.08696 1.51254C8.0232 1.48649 7.95476 1.47384 7.8859 1.47536C7.02847 1.488 6.34748 1.54014 5.81606 1.71868C5.59644 1.13986 5.15403 0.593698 4.48726 0.095462C4.40419 0.0334836 4.30333 0 4.19969 0C4.09605 0 3.99519 0.0334836 3.91212 0.095462C3.25115 0.590012 2.80979 1.13091 2.58911 1.70446C2.07297 1.55225 1.39724 1.49168 0.515058 1.47641C0.446159 1.47468 0.377642 1.48714 0.313766 1.51303C0.24989 1.53891 0.192022 1.57765 0.14376 1.62685C0.0954973 1.67605 0.0578729 1.73466 0.0332264 1.79902C0.00857994 1.86338 -0.00256173 1.93213 0.000494188 2.00098ZM5.19037 3.04011L4.83118 2.09209C4.73111 1.82928 4.53676 1.53382 4.19969 1.22308C3.8663 1.53118 3.67196 1.82349 3.57189 2.08367L3.22218 2.98955L2.29101 2.71463C2.01609 2.63352 1.64109 2.5798 1.11389 2.55083C1.27084 3.56626 1.64689 3.99551 1.99028 4.21724C2.48062 4.53482 3.19584 4.6312 4.18389 4.63226H4.21549C5.20406 4.6312 5.91876 4.53482 6.4091 4.21724C6.75302 3.99551 7.12959 3.56574 7.28602 2.54767C6.77514 2.57453 6.417 2.62773 6.15155 2.71673L5.19037 3.04011ZM1.72747 5.68561H6.67191C6.52128 6.63732 6.259 8.10833 5.84503 9.89903H3.67301V10.9524H5.59275C5.22934 12.4176 4.77113 14.0508 4.19969 15.7609C4.01722 15.214 3.84252 14.6644 3.67565 14.1124H4.19969V13.0591H3.36701C2.92326 11.4938 2.53712 9.91266 2.20938 8.319H3.67301V7.26564H2.00187C1.90308 6.74029 1.81178 6.21356 1.72799 5.68561H1.72747Z" fill="#A85B00"/>
<path id="Vector_2" d="M17.4941 10.4415C17.6295 10.4753 17.746 10.5616 17.8179 10.6813C17.8898 10.801 17.9113 10.9443 17.8775 11.0798C17.731 11.6834 17.4212 12.235 16.982 12.6742C16.5429 13.1134 15.9914 13.4233 15.3879 13.57C15.3206 13.5873 15.2506 13.5912 15.1818 13.5814C15.113 13.5716 15.0468 13.5482 14.9871 13.5127C14.9274 13.4772 14.8753 13.4302 14.8338 13.3745C14.7923 13.3188 14.7623 13.2554 14.7454 13.188C14.7285 13.1206 14.7251 13.0505 14.7354 12.9818C14.7457 12.9131 14.7695 12.8471 14.8055 12.7876C14.8414 12.7282 14.8888 12.6764 14.9448 12.6353C15.0008 12.5942 15.0644 12.5646 15.1319 12.5482C15.5504 12.448 15.9329 12.2339 16.2371 11.9296C16.5414 11.6254 16.7555 11.2428 16.8557 10.8244C16.8897 10.689 16.976 10.5727 17.0957 10.5009C17.2154 10.4291 17.3587 10.4077 17.4941 10.4415Z" fill="#A85B00"/>
<path id="Vector_3" fill-rule="evenodd" clip-rule="evenodd" d="M14.5489 6.7532C13.9653 5.38752 14.0665 3.93705 15.1056 2.89792L14.3609 2.1532C13.1337 3.38036 12.9209 4.98514 13.3323 6.46036C10.9227 5.36961 8.41311 7.3752 8.41311 10.4257C8.41311 13.3346 11.007 15.6925 14.2066 15.6925C17.4061 15.6925 20 13.3346 20 10.4257C20 7.14978 17.1059 5.07942 14.5489 6.7532ZM14.2066 8.35113L13.5482 7.82446C12.5702 7.04181 11.6058 7.08553 10.8759 7.53636C10.1037 8.01353 9.46646 9.03423 9.46646 10.4257C9.46646 12.6604 11.4921 14.6391 14.2066 14.6391C16.921 14.6391 18.9466 12.6604 18.9466 10.4257C18.9466 9.03423 18.3094 8.01353 17.5373 7.53636C16.8073 7.08553 15.8429 7.04181 14.8644 7.82498L14.2066 8.35113Z" fill="#A85B00"/>
<path id="Vector_4" d="M15.2599 5.1589C16.8399 5.1589 17.8933 4.10554 17.8933 2.52551C16.3133 2.52551 15.2599 3.57887 15.2599 5.1589Z" fill="#A85B00"/>
</g>
</svg>
