<svg width="21" height="20" viewBox="0 0 21 20" fill="none" xmlns="http://www.w3.org/2000/svg">
<g id="Group">
<path id="Vector" d="M15.6832 10.6077C15.6832 11.0581 15.3106 11.4236 14.8498 11.4236C14.3896 11.4236 14.017 11.0581 14.017 10.6077C14.017 10.1572 14.3902 9.79169 14.8498 9.79169C15.3106 9.79169 15.6832 10.1572 15.6832 10.6077ZM6.23911 15.2315H8.46128V14.1436H6.23911V15.2315ZM8.46128 17.4075H6.23911V16.3195H8.46128V17.4075Z" fill="#640000"/>
<path id="Vector_2" fill-rule="evenodd" clip-rule="evenodd" d="M11.6403 8.78313C11.9123 8.78313 11.9575 8.73362 12.044 8.63843C12.0946 8.58403 12.1582 8.51331 12.2888 8.42899C12.6527 8.66024 13.0761 8.78046 13.5073 8.77497L14.8846 8.29735C15.2687 7.99914 15.5359 7.57561 15.6397 7.10058C15.7398 6.62987 15.6672 6.13885 15.4352 5.71724C15.1967 5.28681 14.8181 4.95089 14.3624 4.76526C14.2538 4.30502 13.9879 3.89714 13.6106 3.61202L12.2659 3.16378H12.1147C11.8081 2.74302 11.36 2.44708 10.8526 2.33039L8.52548 2.1759C8.04678 2.21398 7.59473 2.40438 7.24277 2.71662C6.67136 2.58308 6.07032 2.68127 5.57111 2.9897C5.22813 3.20056 4.95403 3.50679 4.78233 3.87096L3.68784 4.60968C3.41677 4.95682 3.26936 5.38451 3.26897 5.82494C3.26625 6.00827 3.29182 6.1905 3.34513 6.36621C3.05943 6.71627 2.90408 7.15464 2.90559 7.60649C2.90706 8.13168 3.11678 8.63484 3.48874 9.00562C3.51866 9.37824 3.6552 9.73564 3.88367 10.0392C4.11214 10.3438 4.42222 10.5821 4.78288 10.73C5.19408 10.9744 5.54538 11.3076 5.81101 11.7054C6.07321 12.0998 6.18091 12.5453 6.23912 13.0088H8.52548V10.8448C8.52548 10.4608 8.63754 10.0843 8.85024 9.75794C8.88288 9.70844 8.9128 9.66003 8.94217 9.61379C9.10537 9.35376 9.23701 9.1427 9.54382 8.99909C9.87994 8.87721 10.185 8.68253 10.437 8.42899C10.7956 8.6606 11.2135 8.78395 11.6403 8.78313ZM12.4759 7.24583L12.8964 7.5151C13.0286 7.59942 13.1814 7.6549 13.3419 7.67503L14.3037 7.34157C14.4304 7.20775 14.5153 7.04619 14.5517 6.87483C14.5986 6.6545 14.5644 6.42465 14.4554 6.22749C14.3382 6.01761 14.1528 5.85408 13.93 5.76402L13.405 5.54642L13.2788 5.00244C13.2402 4.83892 13.1581 4.6889 13.0411 4.56834L12.082 4.24848H11.5381L11.2062 3.78718C11.0729 3.60484 10.8839 3.47081 10.6677 3.40531L8.54724 3.26496C8.34028 3.29331 8.1462 3.38184 7.98911 3.51954L7.55937 3.90087L6.99417 3.77413C6.85422 3.74027 6.70896 3.73447 6.56676 3.75707C6.42456 3.77966 6.28824 3.8302 6.16568 3.90577C6.0041 4.00472 5.87481 4.14856 5.7936 4.31974L5.66576 4.59282L4.49402 5.38432C4.41841 5.51977 4.37978 5.66937 4.37978 5.82059V5.838C4.3787 5.91089 4.38903 5.98487 4.41025 6.05559L4.57344 6.59631L4.2155 7.03857C4.08331 7.20177 4.01532 7.39869 4.01695 7.5967V7.60486C4.01695 7.83768 4.10942 8.06724 4.28568 8.24513L4.56419 8.52582L4.59629 8.9164C4.60989 9.08504 4.6719 9.24986 4.77852 9.39184C4.88569 9.53491 5.0342 9.65023 5.21153 9.72258L5.28932 9.75468L5.36167 9.7982C5.5265 9.89612 5.6848 10.0049 5.8344 10.1235C6.02751 10.272 6.26795 10.4891 6.57965 10.8785C6.90604 11.2865 7.08447 11.7429 7.13288 11.9197H7.41739V11.4437C7.41739 11.3964 7.4163 11.3393 7.41521 11.2757C7.40977 10.9634 7.40052 10.4831 7.4979 10.105C7.61485 9.65024 7.85584 9.20634 8.15721 8.78313C8.45912 8.36045 8.91497 8.06507 9.08633 8.00142C9.25768 7.93778 9.43121 7.87195 9.60039 7.70604C9.73639 7.57331 10.1117 7.19197 10.282 7.0179L11.0436 7.51728C11.1894 7.61247 11.3825 7.66578 11.4603 7.68047C11.4815 7.66415 11.5473 7.61247 11.6425 7.5423C11.7382 7.47267 12.1136 7.22897 12.2898 7.11527L12.4759 7.24583Z" fill="#640000"/>
<path id="Vector_3" fill-rule="evenodd" clip-rule="evenodd" d="M18.8584 10.5347C18.8584 10.5347 20.3011 11.8055 20.1107 12.8249C19.9203 13.8443 18.0419 14.125 18.0419 14.125C18.0419 18.2446 14.024 17.9824 12.0189 17.5951C11.644 17.5247 11.2732 17.4339 10.9081 17.3231V18.0977C10.9081 18.0977 10.8662 18.2272 10.7373 18.41C10.431 18.8435 9.63356 19.5752 7.73723 19.5752C6.46812 19.6737 4.29599 18.8604 3.72046 17.7137V14.2055C1.6914 12.7205 0.127991 10.7202 0.127991 8.12708C0.127991 5.97127 1.04623 3.90413 2.68145 2.38044C4.31666 0.856194 6.53448 -3.63353e-05 8.84696 -3.63353e-05C10.6051 -0.0034822 12.3452 0.353656 13.9599 1.04931C15.2219 1.54433 16.3273 2.33311 17.1694 3.33948C17.9396 4.39644 18.3661 5.63835 18.3988 6.91508C18.4053 7.20883 18.4015 7.48735 18.3971 7.75662C18.383 8.70696 18.3699 9.54415 18.8584 10.5347ZM17.9527 11.2006L17.8575 11.0075C17.2433 9.76175 17.2656 8.60524 17.2841 7.62552C17.2885 7.38617 17.2928 7.15824 17.2879 6.94174C17.2575 5.88316 16.9086 4.85834 16.287 4.00096C15.5684 3.15289 14.6268 2.48325 13.5464 2.05894L13.5285 2.05187L13.5105 2.04425C12.0384 1.41025 10.452 1.08477 8.84913 1.08793H8.8475C6.813 1.08793 4.87098 1.84189 3.44847 3.16812C2.02704 4.49272 1.23989 6.27808 1.23989 8.12708C1.23989 10.2388 2.50139 11.9551 4.38629 13.3341L4.83236 13.6605V17.3976C5.01731 17.6136 5.37743 17.8823 5.91815 18.1157C6.58127 18.4024 7.25308 18.5215 7.65019 18.491L7.69371 18.4872H7.73777C8.86491 18.4872 9.39638 18.1842 9.6254 17.9982C9.70427 17.9346 9.75976 17.8742 9.7973 17.8268V15.8217L11.253 16.2895H11.2546L11.2628 16.2923L11.3096 16.3064C11.3531 16.3189 11.4195 16.3385 11.5065 16.3614C11.6806 16.4076 11.9335 16.4696 12.2381 16.5284C12.8561 16.648 13.6438 16.7459 14.4032 16.697C15.1751 16.648 15.7942 16.4565 16.2076 16.1122C16.5791 15.8027 16.9311 15.2478 16.9311 14.1256V13.191L17.8706 13.0507L17.8765 13.0496L17.9152 13.0425C18.1438 13 18.3679 12.9357 18.5843 12.8505C18.7708 12.776 18.9058 12.6982 18.9857 12.6313C18.9957 12.6229 19.0053 12.6142 19.0146 12.6051C19.0046 12.5501 18.9881 12.4964 18.9656 12.4452C18.8859 12.2666 18.7845 12.0985 18.6637 11.9448C18.4998 11.7301 18.3178 11.5299 18.1197 11.3464L18.1153 11.3436V11.3431L18.1143 11.3426L18.1137 11.3415L17.9532 11.2L17.9527 11.2006ZM19.0341 12.5823V12.5834L19.0325 12.5845C19.033 12.5837 19.0335 12.583 19.0341 12.5823Z" fill="#640000"/>
</g>
</svg>
