<svg width="20" height="21" viewBox="0 0 20 21" fill="none" xmlns="http://www.w3.org/2000/svg">
<g id="Group">
<path id="Vector" fill-rule="evenodd" clip-rule="evenodd" d="M12.4987 6.41371C12.4987 7.07672 12.2354 7.71257 11.7665 8.18139C11.2977 8.65021 10.6619 8.91359 9.99885 8.91359C9.33584 8.91359 8.69998 8.65021 8.23116 8.18139C7.76234 7.71257 7.49896 7.07672 7.49896 6.41371C7.49896 5.75069 7.76234 5.11484 8.23116 4.64602C8.69998 4.1772 9.33584 3.91382 9.99885 3.91382C10.6619 3.91382 11.2977 4.1772 11.7665 4.64602C12.2354 5.11484 12.4987 5.75069 12.4987 6.41371ZM11.3877 6.41371C11.3877 6.78204 11.2414 7.1353 10.9809 7.39575C10.7204 7.65621 10.3672 7.80253 9.99885 7.80253C9.63051 7.80253 9.27726 7.65621 9.0168 7.39575C8.75635 7.1353 8.61002 6.78204 8.61002 6.41371C8.61002 6.04537 8.75635 5.69211 9.0168 5.43166C9.27726 5.1712 9.63051 5.02488 9.99885 5.02488C10.3672 5.02488 10.7204 5.1712 10.9809 5.43166C11.2414 5.69211 11.3877 6.04537 11.3877 6.41371Z" fill="#006F18"/>
<path id="Vector_2" fill-rule="evenodd" clip-rule="evenodd" d="M1.66812 0.0584597C1.81494 0.0461583 1.96063 0.0926842 2.07315 0.187802C2.18567 0.28292 2.25579 0.418839 2.26809 0.565659L2.42753 2.43724C7.99783 1.45062 11.8727 1.44173 17.5702 2.44113L17.7291 0.565659C17.7352 0.492959 17.7556 0.422184 17.7892 0.357376C17.8227 0.292569 17.8686 0.234997 17.9244 0.18795C17.9802 0.140903 18.0446 0.105301 18.1142 0.0831786C18.1837 0.0610558 18.2569 0.0528449 18.3296 0.0590152L19.4368 0.153455C19.5835 0.165898 19.7193 0.236081 19.8143 0.348581C19.9093 0.461082 19.9557 0.606697 19.9434 0.753428L19.7606 2.90278C19.8406 2.95851 19.9044 3.03427 19.9458 3.12248C19.9872 3.21069 20.0047 3.30822 19.9964 3.40531C19.9882 3.5024 19.9546 3.59561 19.899 3.67561C19.8434 3.7556 19.7677 3.81956 19.6795 3.86107L19.4851 6.15096C19.4789 6.22371 19.4585 6.29454 19.4249 6.35938C19.3914 6.42423 19.3454 6.48183 19.2896 6.52888C19.2337 6.57593 19.1692 6.61152 19.0996 6.63361C19.03 6.6557 18.9568 6.66385 18.884 6.65761L17.7774 6.56316C17.6307 6.55072 17.4949 6.48054 17.3999 6.36804C17.3049 6.25554 17.2584 6.10992 17.2707 5.96319L17.4752 3.55219C17.1767 3.49945 16.8778 3.44871 16.5786 3.39998C16.6321 3.56599 16.6593 3.73939 16.6591 3.91384L16.6613 4.10828V4.11272C16.6686 4.75214 16.688 6.43928 16.4897 8.0481C16.3786 8.94806 16.1847 9.96968 15.8064 10.8113C15.5236 11.4391 14.9431 12.3679 13.8876 12.689V13.2934C14.3014 13.1468 14.7164 13.0073 15.0597 12.9212C15.2769 12.8657 15.6736 12.7746 16.0852 12.8112C16.4623 12.8413 16.8216 12.9837 17.1169 13.2201C17.3239 13.3887 17.4905 13.6015 17.6047 13.8428C17.7188 14.0842 17.7774 14.348 17.7763 14.615C17.7763 15.1278 17.6113 16.3461 17.4796 17.2132C17.4091 17.6788 17.3352 18.1232 17.2774 18.4249L17.2724 18.4493C17.2319 18.6604 17.1708 18.9754 17.0002 19.262V19.2626L16.9991 19.2643C16.9602 19.3293 16.7852 19.6254 16.4236 19.8431C16.2018 19.9767 15.9521 20.0568 15.694 20.0773C15.436 20.0978 15.1767 20.058 14.9367 19.9611C14.6967 19.8641 14.4825 19.7127 14.311 19.5188C14.1395 19.3249 14.0155 19.0938 13.9487 18.8437C13.8487 18.4754 13.8192 18.091 13.8042 17.7471C13.7991 17.636 13.7948 17.5249 13.7915 17.4138C13.7848 17.2221 13.7792 17.0471 13.7648 16.8744C13.2952 17.0395 12.8207 17.1907 12.3421 17.3277C11.6199 17.5304 10.7849 17.7143 9.99885 17.7143C9.21278 17.7143 8.37837 17.531 7.65563 17.3277C7.18471 17.1929 6.71786 17.0444 6.25569 16.8821L6.24458 17.0271C6.21282 17.447 6.17838 17.8666 6.14125 18.286C6.12459 18.4898 6.09736 18.8082 5.96626 19.0982C5.8553 19.344 5.68631 19.5593 5.47381 19.7255C5.26131 19.8916 5.01166 20.0037 4.74628 20.0521C4.48091 20.1005 4.20775 20.0838 3.95027 20.0034C3.69279 19.9229 3.45868 19.7812 3.26805 19.5904C2.86529 19.1876 2.8114 18.6859 2.77696 18.3693L2.76585 18.2726C2.75474 18.1793 2.73641 18.0571 2.71141 17.906C2.66863 17.641 2.61252 17.3282 2.55197 16.9882L2.5253 16.8399C2.45466 16.4526 2.38873 16.0645 2.32754 15.6755C2.27698 15.3439 2.22143 14.9378 2.22143 14.615C2.22143 14.1489 2.4042 13.6078 2.88084 13.2206C3.20397 12.9609 3.60353 12.8145 4.01801 12.804C4.31133 12.7929 4.59021 12.8407 4.79187 12.8857C4.84687 12.8979 4.89575 12.9101 4.93797 12.9207C5.28129 13.0073 5.69572 13.1468 6.11014 13.2929V12.6801C6.04063 12.6572 5.97222 12.6311 5.90515 12.6018C5.23463 12.3079 4.79909 11.7463 4.52966 11.2724C4.41904 11.0779 4.32214 10.876 4.23967 10.668C3.92857 9.89802 3.74136 8.98694 3.6197 8.16143C3.35471 6.36373 3.33249 4.46104 3.33249 3.91384C3.33249 3.73274 3.36138 3.5583 3.41471 3.39553C3.12194 3.44331 2.82474 3.49442 2.52197 3.54886L2.72696 5.96319C2.73927 6.10992 2.69282 6.25554 2.59782 6.36804C2.50282 6.48054 2.36704 6.55072 2.22032 6.56316L1.11315 6.65761C0.966414 6.66991 0.8208 6.62346 0.708299 6.52846C0.595798 6.43346 0.525615 6.29768 0.513173 6.15096L0.318737 3.86107C0.230289 3.81987 0.15428 3.75606 0.0983878 3.67608C0.0424957 3.5961 0.00870034 3.50279 0.000415489 3.40557C-0.00786936 3.30835 0.00964955 3.21066 0.051203 3.12238C0.0927564 3.0341 0.156872 2.95835 0.237074 2.90278L0.0543047 0.752873C0.0419983 0.606141 0.088449 0.460527 0.18345 0.348026C0.27845 0.235525 0.414229 0.165342 0.560949 0.1529L1.66812 0.0584597ZM6.38846 2.99277C6.56968 3.26573 6.66613 3.5862 6.66567 3.91384C6.66567 4.4166 6.68845 6.12485 6.91733 7.67534C7.03232 8.45641 7.18343 9.07861 7.35064 9.46915H12.7543L12.7598 9.45637L12.7665 9.44304C12.9371 9.06361 13.0832 8.43975 13.1815 7.64034C13.3493 6.27929 13.3354 4.83324 13.3281 4.16272V4.15939L13.3265 3.91384C13.3265 3.57552 13.4265 3.26109 13.5998 2.99833C11.0999 2.74278 8.85168 2.74167 6.38846 2.99277ZM12.7765 12.6812V12.2357C12.7765 12.098 12.8277 11.9652 12.92 11.863C13.0124 11.7609 13.1395 11.6967 13.2765 11.6829C14.0331 11.6063 14.5103 10.983 14.7931 10.3552C15.1025 9.66747 15.2803 8.77807 15.3875 7.91199C15.5758 6.38206 15.5575 4.7588 15.5503 4.1205V4.11772L15.548 3.91384C15.548 3.76651 15.4895 3.6252 15.3853 3.52102C15.2812 3.41684 15.1399 3.35831 14.9925 3.35831C14.8452 3.35831 14.7039 3.41684 14.5997 3.52102C14.4955 3.6252 14.437 3.76651 14.437 3.91384L14.4392 4.15105V4.15716C14.4459 4.82769 14.4614 6.33706 14.2842 7.77644C14.182 8.60863 14.0198 9.36526 13.7798 9.89857C13.6654 10.153 13.5537 10.3219 13.4393 10.4291C13.3363 10.5261 13.2002 10.5801 13.0587 10.5802H7.0201C6.93325 10.5802 6.8476 10.5599 6.77003 10.5208C6.69246 10.4817 6.62513 10.425 6.57345 10.3552C6.48033 10.2231 6.40208 10.0812 6.34013 9.9319C6.11014 9.40526 5.93904 8.65974 5.81793 7.83755C5.57683 6.20429 5.55461 4.4316 5.55461 3.91384C5.55461 3.76651 5.49608 3.6252 5.3919 3.52102C5.28772 3.41684 5.14642 3.35831 4.99908 3.35831C4.85175 3.35831 4.71044 3.41684 4.60626 3.52102C4.50208 3.6252 4.44355 3.76651 4.44355 3.91384C4.44355 4.35549 4.45911 5.69543 4.60854 7.1187C4.6391 7.4109 4.67521 7.70756 4.71854 7.99977C4.84409 8.85139 5.03241 9.71413 5.32296 10.3774C5.57628 10.9563 6.01292 11.604 6.72622 11.6829C6.86226 11.6979 6.988 11.7625 7.07934 11.8644C7.17068 11.9663 7.2212 12.0983 7.2212 12.2351V12.6812C7.3562 12.7218 7.52786 12.7696 7.73007 12.8173C8.28893 12.9484 9.07834 13.0801 9.99885 13.0801C10.7625 13.0794 11.5235 12.9912 12.2671 12.8173C12.4699 12.7696 12.6415 12.7218 12.7765 12.6812ZM7.2212 13.8351C8.12839 14.0702 9.06168 14.1897 9.99885 14.1906C10.936 14.1897 11.8693 14.0702 12.7765 13.8351V14.0817C12.7765 14.1707 12.7979 14.2584 12.8388 14.3375C12.8798 14.4165 12.9392 14.4845 13.0119 14.5358C13.0847 14.5871 13.1687 14.6202 13.2569 14.6322C13.3451 14.6443 13.4349 14.6349 13.5187 14.605L13.8242 14.4956C14.392 14.2917 14.9303 14.0995 15.3314 13.9978C15.5347 13.9467 15.7753 13.8989 15.9869 13.9178C16.0947 13.9273 16.2647 13.9589 16.4158 14.0823C16.5924 14.2256 16.6652 14.4273 16.6652 14.6156C16.6652 15.025 16.5174 16.1483 16.3813 17.0466C16.3235 17.4366 16.2585 17.8256 16.1864 18.2132C16.1391 18.4565 16.1075 18.5904 16.0452 18.6948L16.0425 18.6993C15.9863 18.7941 15.9034 18.8701 15.8041 18.9179C15.7048 18.9656 15.5936 18.9829 15.4845 18.9676C15.3754 18.9523 15.2732 18.905 15.1909 18.8318C15.1086 18.7585 15.0498 18.6626 15.022 18.556V18.5548C14.9553 18.3093 14.9286 18.0254 14.9136 17.6966C14.9097 17.6042 14.9061 17.5118 14.9031 17.4193C14.8977 17.1714 14.8841 16.9237 14.8625 16.6766L14.7986 16.0566C14.7898 15.973 14.7621 15.8924 14.7177 15.821C14.6732 15.7496 14.6131 15.6893 14.5419 15.6445C14.4707 15.5997 14.3903 15.5717 14.3066 15.5626C14.223 15.5534 14.1384 15.5633 14.0592 15.5916C13.4393 15.8139 12.7337 16.0638 12.0415 16.2583C11.3493 16.4527 10.6316 16.6033 9.99885 16.6033C9.36611 16.6033 8.64836 16.4527 7.95617 16.2583C7.3062 16.075 6.64401 15.8433 6.05237 15.6322L5.94293 15.5933C5.86238 15.5645 5.77627 15.5547 5.69131 15.5646C5.60635 15.5746 5.52482 15.604 5.4531 15.6506C5.38137 15.6972 5.32138 15.7598 5.2778 15.8334C5.23422 15.907 5.20823 15.9897 5.20185 16.075C5.18129 16.3472 5.15907 16.6483 5.1363 16.9416C5.1013 17.3932 5.06686 17.8304 5.04019 18.1215L5.03797 18.1465C5.01464 18.4049 5.00297 18.5332 4.95408 18.6404L4.95075 18.6482C4.91274 18.7289 4.85584 18.7994 4.78487 18.8535C4.71389 18.9076 4.63093 18.9439 4.543 18.9592C4.45506 18.9745 4.36473 18.9684 4.27964 18.9415C4.19455 18.9145 4.1172 18.8674 4.05412 18.8043C3.93746 18.6876 3.92357 18.5776 3.87247 18.1676L3.86858 18.1354C3.8511 17.9993 3.8311 17.8636 3.80858 17.7282C3.76414 17.4532 3.70636 17.1321 3.64636 16.796L3.61859 16.6444C3.54972 16.2663 3.48546 15.8874 3.42582 15.5078C3.37415 15.1706 3.33249 14.8422 3.33249 14.615C3.33249 14.4273 3.40471 14.2262 3.58192 14.0817C3.68803 13.9956 3.80414 13.9539 3.90024 13.9339C3.94135 13.9251 3.97857 13.9206 4.01024 13.9173C4.22245 13.8989 4.46299 13.9467 4.66576 13.9978C4.76576 14.0234 4.87353 14.0534 4.98797 14.0889C5.31018 14.1878 5.68738 14.3211 6.08125 14.4623L6.47901 14.605C6.56285 14.6349 6.65265 14.6443 6.74085 14.6322C6.82904 14.6202 6.91305 14.5871 6.9858 14.5358C7.05855 14.4845 7.1179 14.4165 7.15887 14.3375C7.19984 14.2584 7.22122 14.1707 7.2212 14.0817V13.8351Z" fill="#006F18"/>
</g>
</svg>
